<svg version="1.1" xmlns="http://www.w3.org/2000/svg" viewBox="0 0 2576.7308452217076 957.4902321845138" width="2576.7308452217076" height="957.4902321845138">
  <!-- svg-source:excalidraw -->
  
  <defs>
    <style class="style-fonts">
      @font-face {
        font-family: "Virgil";
        src: url("https://excalidraw.com/Virgil.woff2");
      }
      @font-face {
        font-family: "Cascadia";
        src: url("https://excalidraw.com/Cascadia.woff2");
      }
    </style>
  </defs>
  <rect x="0" y="0" width="2576.7308452217076" height="957.4902321845138" fill="#ffffff"></rect><g stroke-linecap="round" transform="translate(237.93697736139188 22.489795084857178) rotate(0 285.99999999999994 35)"><path d="M0 0 C181.23 0, 362.46 0, 572 0 M0 0 C192.5 0, 385.01 0, 572 0 M572 0 C572 19.2, 572 38.41, 572 70 M572 0 C572 18.74, 572 37.47, 572 70 M572 70 C427.48 70, 282.96 70, 0 70 M572 70 C389.79 70, 207.57 70, 0 70 M0 70 C0 49.73, 0 29.47, 0 0 M0 70 C0 55.07, 0 40.13, 0 0" stroke="#000000" stroke-width="1" fill="none"></path></g><g transform="translate(453.9369773613919 34.98979508485718) rotate(0 69.99999999999994 23)"><text x="70" y="32" font-family="Virgil, Segoe UI Emoji" font-size="36px" fill="#000000" text-anchor="middle" style="white-space: pre;" direction="ltr">Browser</text></g><g stroke-linecap="round" transform="translate(1287.561324288742 22.794748480308954) rotate(0 157.23173464880108 35.10665138746526)"><path d="M0 0 C74.57 0, 149.14 0, 314.46 0 M0 0 C109.29 0, 218.59 0, 314.46 0 M314.46 0 C314.46 22.6, 314.46 45.2, 314.46 70.21 M314.46 0 C314.46 27.81, 314.46 55.62, 314.46 70.21 M314.46 70.21 C207.01 70.21, 99.55 70.21, 0 70.21 M314.46 70.21 C222.68 70.21, 130.89 70.21, 0 70.21 M0 70.21 C0 42.36, 0 14.5, 0 0 M0 70.21 C0 54.97, 0 39.72, 0 0" stroke="#000000" stroke-width="1" fill="none"></path></g><g transform="translate(1388.2930589375433 35.40139986777467) rotate(0 56.5 23)"><text x="56.5" y="32" font-family="Virgil, Segoe UI Emoji" font-size="36px" fill="#000000" text-anchor="middle" style="white-space: pre;" direction="ltr">Server</text></g><g stroke-linecap="round" transform="translate(744.7208158692978 180.5299692210865) rotate(0 239 28)"><path d="M0 0 C139.18 0, 278.36 0, 478 0 M0 0 C96.66 0, 193.32 0, 478 0 M478 0 C478 16.77, 478 33.54, 478 56 M478 0 C478 20.5, 478 41, 478 56 M478 56 C331.33 56, 184.65 56, 0 56 M478 56 C326.94 56, 175.88 56, 0 56 M0 56 C0 40.38, 0 24.76, 0 0 M0 56 C0 42.62, 0 29.23, 0 0" stroke="#000000" stroke-width="1" fill="none"></path></g><g transform="translate(788.7208158692978 185.5299692210865) rotate(0 195 23)"><text x="195" y="32" font-family="Virgil, Segoe UI Emoji" font-size="36px" fill="#000000" text-anchor="middle" style="white-space: pre;" direction="ltr">Qwik.js (less than 1kb)</text></g><g stroke-linecap="round"><g transform="translate(825.5114955141072 60.82937702032814) rotate(0 224.94877284033873 -1.7746512158264522)"><path d="M0 0 C74.98 -0.59, 374.91 -2.96, 449.9 -3.55 M0 0 C74.98 -0.59, 374.91 -2.96, 449.9 -3.55" stroke="#000000" stroke-width="1" fill="none"></path></g><g transform="translate(825.5114955141072 60.82937702032814) rotate(0 224.94877284033873 -1.7746512158264522)"><path d="M421.79 6.93 C432.43 2.97, 443.06 -1, 449.9 -3.55 M421.79 6.93 C432.75 2.84, 443.72 -1.25, 449.9 -3.55" stroke="#000000" stroke-width="1" fill="none"></path></g><g transform="translate(825.5114955141072 60.82937702032814) rotate(0 224.94877284033873 -1.7746512158264522)"><path d="M421.63 -13.59 C432.33 -9.79, 443.03 -5.99, 449.9 -3.55 M421.63 -13.59 C432.66 -9.67, 443.69 -5.76, 449.9 -3.55" stroke="#000000" stroke-width="1" fill="none"></path></g></g><g transform="translate(978.5356974368511 10) rotate(0 85 23)"><text x="0" y="32" font-family="Virgil, Segoe UI Emoji" font-size="36px" fill="#000000" text-anchor="start" style="white-space: pre;" direction="ltr">todo.app/</text></g><g stroke-linecap="round"><g transform="translate(1425.0857122480647 115.13735997424192) rotate(0 5.989589112608428 405.5944973236342)"><path d="M0 0 C2 135.2, 9.98 675.99, 11.98 811.19 M0 0 C2 135.2, 9.98 675.99, 11.98 811.19" stroke="#000000" stroke-width="1" fill="none"></path></g><g transform="translate(1425.0857122480647 115.13735997424192) rotate(0 5.989589112608428 405.5944973236342)"><path d="M1.3 783.15 C4.47 791.48, 7.64 799.8, 11.98 811.19 M1.3 783.15 C5.26 793.53, 9.21 803.91, 11.98 811.19" stroke="#000000" stroke-width="1" fill="none"></path></g><g transform="translate(1425.0857122480647 115.13735997424192) rotate(0 5.989589112608428 405.5944973236342)"><path d="M21.82 782.85 C18.9 791.27, 15.98 799.68, 11.98 811.19 M21.82 782.85 C18.18 793.34, 14.53 803.83, 11.98 811.19" stroke="#000000" stroke-width="1" fill="none"></path></g></g><g stroke-linecap="round"><g transform="translate(1419.424861731894 179.08494928097298) rotate(0 -434.9355040848152 -4.056223795556434)"><path d="M0 0 C-144.98 -1.35, -724.89 -6.76, -869.87 -8.11 M0 0 C-144.98 -1.35, -724.89 -6.76, -869.87 -8.11" stroke="#000000" stroke-width="1" fill="none"></path></g><g transform="translate(1419.424861731894 179.08494928097298) rotate(0 -434.9355040848152 -4.056223795556434)"><path d="M-841.59 -18.11 C-850.82 -14.85, -860.05 -11.58, -869.87 -8.11 M-841.59 -18.11 C-852.46 -14.27, -863.33 -10.42, -869.87 -8.11" stroke="#000000" stroke-width="1" fill="none"></path></g><g transform="translate(1419.424861731894 179.08494928097298) rotate(0 -434.9355040848152 -4.056223795556434)"><path d="M-841.78 2.41 C-850.95 -1.02, -860.12 -4.46, -869.87 -8.11 M-841.78 2.41 C-852.58 -1.63, -863.38 -5.68, -869.87 -8.11" stroke="#000000" stroke-width="1" fill="none"></path></g></g><g transform="translate(1023.759946848572 135.62724376992992) rotate(0 81.5 23)"><text x="0" y="32" font-family="Virgil, Segoe UI Emoji" font-size="36px" fill="#000000" text-anchor="start" style="white-space: pre;" direction="ltr">todo.html</text></g><g stroke-linecap="round"><g transform="translate(531.576616943938 118.82015601582043) rotate(0 3.985629153018806 414.3350380843467)"><path d="M0 0 C1.33 138.11, 6.64 690.56, 7.97 828.67 M0 0 C1.33 138.11, 6.64 690.56, 7.97 828.67" stroke="#000000" stroke-width="1" fill="none"></path></g><g transform="translate(531.576616943938 118.82015601582043) rotate(0 3.985629153018806 414.3350380843467)"><path d="M-2.56 800.58 C1.51 811.43, 5.58 822.29, 7.97 828.67 M-2.56 800.58 C0.23 808.03, 3.03 815.48, 7.97 828.67" stroke="#000000" stroke-width="1" fill="none"></path></g><g transform="translate(531.576616943938 118.82015601582043) rotate(0 3.985629153018806 414.3350380843467)"><path d="M17.96 800.38 C14.1 811.31, 10.24 822.24, 7.97 828.67 M17.96 800.38 C15.31 807.89, 12.66 815.39, 7.97 828.67" stroke="#000000" stroke-width="1" fill="none"></path></g></g><g stroke-linecap="round" transform="translate(32.64194613626415 216.3374383423743) rotate(0 25.61967118695 25.6196711869502)"><path d="M51.24 25.62 C51.24 27.1, 51.11 28.61, 50.85 30.07 C50.59 31.53, 50.2 32.99, 49.69 34.38 C49.19 35.78, 48.55 37.15, 47.81 38.43 C47.07 39.71, 46.2 40.95, 45.25 42.09 C44.29 43.22, 43.22 44.29, 42.09 45.25 C40.95 46.2, 39.71 47.07, 38.43 47.81 C37.15 48.55, 35.78 49.19, 34.38 49.69 C32.99 50.2, 31.53 50.59, 30.07 50.85 C28.61 51.11, 27.1 51.24, 25.62 51.24 C24.14 51.24, 22.63 51.11, 21.17 50.85 C19.71 50.59, 18.25 50.2, 16.86 49.69 C15.46 49.19, 14.09 48.55, 12.81 47.81 C11.53 47.07, 10.29 46.2, 9.15 45.25 C8.02 44.29, 6.95 43.22, 5.99 42.09 C5.04 40.95, 4.17 39.71, 3.43 38.43 C2.69 37.15, 2.05 35.78, 1.55 34.38 C1.04 32.99, 0.65 31.53, 0.39 30.07 C0.13 28.61, 0 27.1, 0 25.62 C0 24.14, 0.13 22.63, 0.39 21.17 C0.65 19.71, 1.04 18.25, 1.55 16.86 C2.05 15.46, 2.69 14.09, 3.43 12.81 C4.17 11.53, 5.04 10.29, 5.99 9.15 C6.95 8.02, 8.02 6.95, 9.15 5.99 C10.29 5.04, 11.53 4.17, 12.81 3.43 C14.09 2.69, 15.46 2.05, 16.86 1.55 C18.25 1.04, 19.71 0.65, 21.17 0.39 C22.63 0.13, 24.14 0, 25.62 0 C27.1 0, 28.61 0.13, 30.07 0.39 C31.53 0.65, 32.99 1.04, 34.38 1.55 C35.78 2.05, 37.15 2.69, 38.43 3.43 C39.71 4.17, 40.95 5.04, 42.09 5.99 C43.22 6.95, 44.29 8.02, 45.25 9.15 C46.2 10.29, 47.07 11.53, 47.81 12.81 C48.55 14.09, 49.19 15.46, 49.69 16.86 C50.2 18.25, 50.59 19.71, 50.85 21.17 C51.11 22.63, 51.17 24.88, 51.24 25.62 C51.3 26.36, 51.3 24.88, 51.24 25.62" stroke="#000000" stroke-width="1" fill="none"></path></g><g stroke-linecap="round" transform="translate(38.838528106708736 274.7387938427182) rotate(0 18.536227990777604 40.56550438641534)"><path d="M0 0 C12.49 0, 24.98 0, 37.07 0 M0 0 C10.28 0, 20.57 0, 37.07 0 M37.07 0 C37.07 24.49, 37.07 48.97, 37.07 81.13 M37.07 0 C37.07 18.47, 37.07 36.93, 37.07 81.13 M37.07 81.13 C26.24 81.13, 15.41 81.13, 0 81.13 M37.07 81.13 C23.96 81.13, 10.85 81.13, 0 81.13 M0 81.13 C0 55.97, 0 30.82, 0 0 M0 81.13 C0 51.24, 0 21.36, 0 0" stroke="#000000" stroke-width="1" fill="none"></path></g><g stroke-linecap="round"><g transform="translate(85.71892119883171 283.8517008480512) rotate(0 6.641744636084525 11.043844623975929)"><path d="M0 0 C2.21 3.68, 11.07 18.41, 13.28 22.09 M0 0 C2.21 3.68, 11.07 18.41, 13.28 22.09" stroke="#000000" stroke-width="1" fill="none"></path></g></g><g stroke-linecap="round"><g transform="translate(37.72238325698436 286.08278564122156) rotate(0 -13.861191628492179 9.108062278002762)"><path d="M0 0 C-4.62 3.04, -23.1 15.18, -27.72 18.22 M0 0 C-4.62 3.04, -23.1 15.18, -27.72 18.22" stroke="#000000" stroke-width="1" fill="none"></path></g></g><g stroke-linecap="round"><g transform="translate(47.79479729577946 358.4440848805034) rotate(0 -9.214169337192118 30.434376268735832)"><path d="M0 0 C-3.07 10.14, -15.36 50.72, -18.43 60.87 M0 0 C-3.07 10.14, -15.36 50.72, -18.43 60.87" stroke="#000000" stroke-width="1" fill="none"></path></g></g><g stroke-linecap="round"><g transform="translate(68.05133022631304 366.93666596989533) rotate(0 8.407760707797678 27.922698925858185)"><path d="M0 0 C2.8 9.31, 14.01 46.54, 16.82 55.85 M0 0 C2.8 9.31, 14.01 46.54, 16.82 55.85" stroke="#000000" stroke-width="1" fill="none"></path></g></g><g stroke-linecap="round"><g transform="translate(111.93306302115354 300.99455513609246) rotate(0 198.33259395627738 -6.098131086569538)"><path d="M0 0 C66.11 -2.03, 330.55 -10.16, 396.67 -12.2 M0 0 C66.11 -2.03, 330.55 -10.16, 396.67 -12.2" stroke="#000000" stroke-width="1" fill="none"></path></g><g transform="translate(111.93306302115354 300.99455513609246) rotate(0 198.33259395627738 -6.098131086569538)"><path d="M368.8 -1.07 C376.88 -4.3, 384.95 -7.52, 396.67 -12.2 M368.8 -1.07 C376.38 -4.1, 383.96 -7.13, 396.67 -12.2" stroke="#000000" stroke-width="1" fill="none"></path></g><g transform="translate(111.93306302115354 300.99455513609246) rotate(0 198.33259395627738 -6.098131086569538)"><path d="M368.17 -21.59 C376.43 -18.86, 384.69 -16.14, 396.67 -12.2 M368.17 -21.59 C375.92 -19.03, 383.68 -16.48, 396.67 -12.2" stroke="#000000" stroke-width="1" fill="none"></path></g></g><g transform="translate(197.47443041032875 231.81636794609312) rotate(0 125.5 23)"><text x="0" y="32" font-family="Virgil, Segoe UI Emoji" font-size="36px" fill="#000000" text-anchor="start" style="white-space: pre;" direction="ltr">click click click</text></g><g stroke-linecap="round"><g transform="translate(543.3265617495866 292.7776967668642) rotate(0 436.2085552412169 -2.3112110607194154)"><path d="M0 0 C145.4 -0.77, 727.01 -3.85, 872.42 -4.62 M0 0 C145.4 -0.77, 727.01 -3.85, 872.42 -4.62" stroke="#000000" stroke-width="1" fill="none"></path></g><g transform="translate(543.3265617495866 292.7776967668642) rotate(0 436.2085552412169 -2.3112110607194154)"><path d="M844.28 5.79 C854.03 2.18, 863.78 -1.43, 872.42 -4.62 M844.28 5.79 C853.88 2.23, 863.48 -1.32, 872.42 -4.62" stroke="#000000" stroke-width="1" fill="none"></path></g><g transform="translate(543.3265617495866 292.7776967668642) rotate(0 436.2085552412169 -2.3112110607194154)"><path d="M844.17 -14.73 C853.96 -11.23, 863.74 -7.73, 872.42 -4.62 M844.17 -14.73 C853.81 -11.28, 863.45 -7.83, 872.42 -4.62" stroke="#000000" stroke-width="1" fill="none"></path></g></g><g transform="translate(659.2105317125848 312.98101368587686) rotate(0 289 23)"><text x="0" y="32" font-family="Virgil, Segoe UI Emoji" font-size="36px" fill="#000000" text-anchor="start" style="white-space: pre;" direction="ltr">qwik -&gt; fetch QRL:onclick handler</text></g><g stroke-linecap="round"><g transform="translate(1411.9674959538238 448.50771655667995) rotate(0 -434.2602719926 11.749944805649193)"><path d="M0 0 C-144.75 3.92, -723.77 19.58, -868.52 23.5 M0 0 C-144.75 3.92, -723.77 19.58, -868.52 23.5" stroke="#000000" stroke-width="1" fill="none"></path></g><g transform="translate(1411.9674959538238 448.50771655667995) rotate(0 -434.2602719926 11.749944805649193)"><path d="M-840.62 12.48 C-848.38 15.55, -856.15 18.61, -868.52 23.5 M-840.62 12.48 C-851.68 16.85, -862.74 21.22, -868.52 23.5" stroke="#000000" stroke-width="1" fill="none"></path></g><g transform="translate(1411.9674959538238 448.50771655667995) rotate(0 -434.2602719926 11.749944805649193)"><path d="M-840.06 32.99 C-847.98 30.35, -855.9 27.71, -868.52 23.5 M-840.06 32.99 C-851.35 29.23, -862.63 25.47, -868.52 23.5" stroke="#000000" stroke-width="1" fill="none"></path></g></g><g transform="translate(939.8248263366382 472.8724785365821) rotate(0 165 23)"><text x="0" y="32" font-family="Virgil, Segoe UI Emoji" font-size="36px" fill="#000000" text-anchor="start" style="white-space: pre;" direction="ltr">JS: onClick Handler</text></g><g stroke-linecap="round"><g transform="translate(507.3269744005705 473.6133446023787) rotate(0 -192.075465445316 -66.36171944544367)"><path d="M0 0 C-64.03 -22.12, -320.13 -110.6, -384.15 -132.72 M0 0 C-64.03 -22.12, -320.13 -110.6, -384.15 -132.72" stroke="#000000" stroke-width="1" fill="none"></path></g><g transform="translate(507.3269744005705 473.6133446023787) rotate(0 -192.075465445316 -66.36171944544367)"><path d="M-354.15 -133.22 C-363.21 -133.07, -372.26 -132.92, -384.15 -132.72 M-354.15 -133.22 C-360.98 -133.1, -367.81 -132.99, -384.15 -132.72" stroke="#000000" stroke-width="1" fill="none"></path></g><g transform="translate(507.3269744005705 473.6133446023787) rotate(0 -192.075465445316 -66.36171944544367)"><path d="M-360.86 -113.82 C-367.89 -119.53, -374.92 -125.23, -384.15 -132.72 M-360.86 -113.82 C-366.16 -118.12, -371.46 -122.43, -384.15 -132.72" stroke="#000000" stroke-width="1" fill="none"></path></g></g><g transform="translate(163.13279410113353 457.25970460951066) rotate(0 135 25)"><text x="0" y="36" font-family="Virgil, Segoe UI Emoji" font-size="36px" fill="#000000" text-anchor="start" style="white-space: pre;" direction="ltr">interactivity 🎉</text></g><g stroke-linecap="round"><g transform="translate(1332.8917058618663 335.95566388594943) rotate(0 204.30220170642679 -81.96302166065243)"><path d="M0 0 C68.1 -27.32, 340.5 -136.61, 408.6 -163.93" stroke="#000000" stroke-width="1.5" fill="none" stroke-dasharray="8 9"></path></g></g><g transform="translate(1761.735924130633 124.96332115703444) rotate(0 326 45.5)"><text x="0" y="32.5" font-family="Virgil, Segoe UI Emoji" font-size="36px" fill="#000000" text-anchor="start" style="white-space: pre;" direction="ltr">This is handled by a document level </text><text x="0" y="78" font-family="Virgil, Segoe UI Emoji" font-size="36px" fill="#000000" text-anchor="start" style="white-space: pre;" direction="ltr">event handler that qwik creates</text></g><g transform="translate(1788.7308452217076 319.87829886195505) rotate(0 389 68.5)"><text x="0" y="31.666666666666664" font-family="Virgil, Segoe UI Emoji" font-size="36px" fill="#000000" text-anchor="start" style="white-space: pre;" direction="ltr">Qwik figures out what handler needs to</text><text x="0" y="77.33333333333333" font-family="Virgil, Segoe UI Emoji" font-size="36px" fill="#000000" text-anchor="start" style="white-space: pre;" direction="ltr">be fetched, gets the QRL, resolves to URL</text><text x="0" y="123" font-family="Virgil, Segoe UI Emoji" font-size="36px" fill="#000000" text-anchor="start" style="white-space: pre;" direction="ltr">and fetches it from server</text></g></svg>